<?xml version="1.0" encoding="utf-8"?>
<!-- Generator: Adobe Illustrator 24.1.3, SVG Export Plug-In . SVG Version: 6.00 Build 0)  -->
<svg version="1.1" id="Layer_1" xmlns="http://www.w3.org/2000/svg" xmlns:xlink="http://www.w3.org/1999/xlink" x="0px" y="0px"
	 viewBox="0 0 40 40" style="enable-background:new 0 0 40 40;" xml:space="preserve">
<style type="text/css">
	.st0{fill:#F8F8F8;}
</style>
<path class="st0" d="M16.6,15.3c0,0.4-0.1,0.7-0.4,0.9c-0.3,0.2-0.6,0.4-0.9,0.4c-0.4,0-0.7-0.1-0.9-0.4C14.1,16,14,15.7,14,15.3
	c0-0.4,0.1-0.7,0.4-0.9c0.3-0.2,0.6-0.4,0.9-0.4c0.4,0,0.7,0.1,0.9,0.4C16.5,14.6,16.6,15,16.6,15.3z M16.7,17.7H14V26h2.7V17.7z
	 M20.9,17.7h-2.7V26h2.6v-4.4c0-2.4,3.2-2.7,3.2,0V26h2.6v-5.3c0-4.1-4.7-4-5.8-1.9L20.9,17.7z"/>
</svg>
