<?xml version="1.0" encoding="utf-8"?>
<!-- Generator: Adobe Illustrator 24.1.3, SVG Export Plug-In . SVG Version: 6.00 Build 0)  -->
<svg version="1.1" id="Layer_1" xmlns="http://www.w3.org/2000/svg" xmlns:xlink="http://www.w3.org/1999/xlink" x="0px" y="0px"
	 viewBox="0 0 40 40" style="enable-background:new 0 0 40 40;" xml:space="preserve">
<style type="text/css">
	.st0{fill:#F8F8F8;}
</style>
<path class="st0" d="M20,18c-0.5,0-1,0.2-1.4,0.6C18.2,19,18,19.5,18,20c0,0.5,0.2,1,0.6,1.4C19,21.8,19.5,22,20,22s1-0.2,1.4-0.6
	C21.8,21,22,20.5,22,20c0-0.5-0.2-1-0.6-1.4C21,18.2,20.5,18,20,18z M20,16.7c0.9,0,1.7,0.4,2.4,1c0.6,0.6,1,1.5,1,2.4
	c0,0.9-0.4,1.7-1,2.4c-0.6,0.6-1.5,1-2.4,1c-0.9,0-1.7-0.4-2.4-1c-0.6-0.6-1-1.5-1-2.4c0-0.9,0.4-1.7,1-2.4
	C18.3,17,19.1,16.7,20,16.7z M24.3,16.5c0,0.2-0.1,0.4-0.2,0.6c-0.2,0.2-0.4,0.2-0.6,0.2s-0.4-0.1-0.6-0.2c-0.2-0.2-0.2-0.4-0.2-0.6
	c0-0.2,0.1-0.4,0.2-0.6c0.2-0.2,0.4-0.2,0.6-0.2s0.4,0.1,0.6,0.2C24.2,16.1,24.3,16.3,24.3,16.5z M20,14.7c-1.6,0-1.9,0-2.7,0
	c-0.5,0-0.9,0.1-1.2,0.2c-0.3,0.1-0.5,0.2-0.7,0.5c-0.2,0.2-0.4,0.4-0.5,0.7c-0.1,0.3-0.2,0.7-0.2,1.2c0,0.7,0,1,0,2.7
	c0,1.6,0,1.9,0,2.7c0,0.5,0.1,0.9,0.2,1.2c0.1,0.3,0.2,0.5,0.5,0.7c0.2,0.2,0.4,0.4,0.7,0.5c0.3,0.1,0.7,0.2,1.2,0.2
	c0.7,0,1,0,2.7,0c1.6,0,1.9,0,2.7,0c0.5,0,0.9-0.1,1.2-0.2c0.3-0.1,0.5-0.2,0.7-0.5c0.2-0.2,0.4-0.4,0.5-0.7
	c0.1-0.3,0.2-0.7,0.2-1.2c0-0.7,0-1,0-2.7c0-1.6,0-1.9,0-2.7c0-0.5-0.1-0.9-0.2-1.2c-0.1-0.3-0.3-0.5-0.5-0.7
	c-0.2-0.2-0.4-0.4-0.7-0.5c-0.3-0.1-0.7-0.2-1.2-0.2C22,14.7,21.7,14.7,20,14.7z M20,13.3c1.8,0,2,0,2.7,0c0.7,0,1.2,0.1,1.6,0.3
	c0.4,0.2,0.8,0.4,1.2,0.8c0.3,0.3,0.6,0.7,0.8,1.2c0.2,0.4,0.3,0.9,0.3,1.6c0,0.7,0,0.9,0,2.7c0,1.8,0,2,0,2.7
	c0,0.7-0.1,1.2-0.3,1.6c-0.2,0.4-0.4,0.8-0.8,1.2c-0.3,0.3-0.7,0.6-1.2,0.8c-0.4,0.2-0.9,0.3-1.6,0.3c-0.7,0-0.9,0-2.7,0s-2,0-2.7,0
	c-0.7,0-1.2-0.1-1.6-0.3c-0.4-0.2-0.8-0.4-1.2-0.8c-0.3-0.3-0.6-0.7-0.8-1.2c-0.2-0.4-0.3-0.9-0.3-1.6c0-0.7,0-0.9,0-2.7
	c0-1.8,0-2,0-2.7c0-0.7,0.1-1.2,0.3-1.6c0.2-0.4,0.4-0.8,0.8-1.2c0.3-0.3,0.7-0.6,1.2-0.8c0.4-0.2,0.9-0.3,1.6-0.3
	C18,13.3,18.2,13.3,20,13.3z"/>
</svg>
